<svg id="visual" viewBox="0 0 450 900" width="450" height="900" xmlns="http://www.w3.org/2000/svg" xmlns:xlink="http://www.w3.org/1999/xlink" version="1.1"><rect x="0" y="0" width="450" height="900" fill="#1a7dc9"></rect><path d="M0 152L12.5 160.5C25 169 50 186 75 189.7C100 193.3 125 183.7 150 192C175 200.3 200 226.7 225 235.3C250 244 275 235 300 224C325 213 350 200 375 205.8C400 211.7 425 236.3 437.5 248.7L450 261L450 901L437.5 901C425 901 400 901 375 901C350 901 325 901 300 901C275 901 250 901 225 901C200 901 175 901 150 901C125 901 100 901 75 901C50 901 25 901 12.5 901L0 901Z" fill="#69f6fa"></path><path d="M0 329L12.5 325.8C25 322.7 50 316.3 75 303.7C100 291 125 272 150 265.2C175 258.3 200 263.7 225 255.2C250 246.7 275 224.3 300 221.8C325 219.3 350 236.7 375 256.7C400 276.7 425 299.3 437.5 310.7L450 322L450 901L437.5 901C425 901 400 901 375 901C350 901 325 901 300 901C275 901 250 901 225 901C200 901 175 901 150 901C125 901 100 901 75 901C50 901 25 901 12.5 901L0 901Z" fill="#46e6fa"></path><path d="M0 362L12.5 366.3C25 370.7 50 379.3 75 370.5C100 361.7 125 335.3 150 327.7C175 320 200 331 225 335.5C250 340 275 338 300 341.5C325 345 350 354 375 347.8C400 341.7 425 320.3 437.5 309.7L450 299L450 901L437.5 901C425 901 400 901 375 901C350 901 325 901 300 901C275 901 250 901 225 901C200 901 175 901 150 901C125 901 100 901 75 901C50 901 25 901 12.5 901L0 901Z" fill="#1fd5f9"></path><path d="M0 473L12.5 475.5C25 478 50 483 75 485.7C100 488.3 125 488.7 150 487.3C175 486 200 483 225 468.3C250 453.7 275 427.3 300 427.3C325 427.3 350 453.7 375 468.3C400 483 425 486 437.5 487.5L450 489L450 901L437.5 901C425 901 400 901 375 901C350 901 325 901 300 901C275 901 250 901 225 901C200 901 175 901 150 901C125 901 100 901 75 901C50 901 25 901 12.5 901L0 901Z" fill="#00c3f7"></path><path d="M0 551L12.5 544.7C25 538.3 50 525.7 75 518.2C100 510.7 125 508.3 150 514.8C175 521.3 200 536.7 225 533.2C250 529.7 275 507.3 300 499.3C325 491.3 350 497.7 375 503C400 508.3 425 512.7 437.5 514.8L450 517L450 901L437.5 901C425 901 400 901 375 901C350 901 325 901 300 901C275 901 250 901 225 901C200 901 175 901 150 901C125 901 100 901 75 901C50 901 25 901 12.5 901L0 901Z" fill="#00b1f1"></path><path d="M0 599L12.5 594C25 589 50 579 75 582.3C100 585.7 125 602.3 150 599C175 595.7 200 572.3 225 569.8C250 567.3 275 585.7 300 597.7C325 609.7 350 615.3 375 606.3C400 597.3 425 573.7 437.5 561.8L450 550L450 901L437.5 901C425 901 400 901 375 901C350 901 325 901 300 901C275 901 250 901 225 901C200 901 175 901 150 901C125 901 100 901 75 901C50 901 25 901 12.5 901L0 901Z" fill="#009eea"></path><path d="M0 620L12.5 628.8C25 637.7 50 655.3 75 669.2C100 683 125 693 150 683.7C175 674.3 200 645.7 225 642.7C250 639.7 275 662.3 300 664.3C325 666.3 350 647.7 375 647.3C400 647 425 665 437.5 674L450 683L450 901L437.5 901C425 901 400 901 375 901C350 901 325 901 300 901C275 901 250 901 225 901C200 901 175 901 150 901C125 901 100 901 75 901C50 901 25 901 12.5 901L0 901Z" fill="#008ce0"></path><path d="M0 724L12.5 731.5C25 739 50 754 75 759C100 764 125 759 150 754.8C175 750.7 200 747.3 225 739.8C250 732.3 275 720.7 300 721.5C325 722.3 350 735.7 375 741.7C400 747.7 425 746.3 437.5 745.7L450 745L450 901L437.5 901C425 901 400 901 375 901C350 901 325 901 300 901C275 901 250 901 225 901C200 901 175 901 150 901C125 901 100 901 75 901C50 901 25 901 12.5 901L0 901Z" fill="#0078d5"></path><path d="M0 845L12.5 840.3C25 835.7 50 826.3 75 816.8C100 807.3 125 797.7 150 797.3C175 797 200 806 225 811.3C250 816.7 275 818.3 300 811.5C325 804.7 350 789.3 375 790.7C400 792 425 810 437.5 819L450 828L450 901L437.5 901C425 901 400 901 375 901C350 901 325 901 300 901C275 901 250 901 225 901C200 901 175 901 150 901C125 901 100 901 75 901C50 901 25 901 12.5 901L0 901Z" fill="#2464c7"></path></svg>